<mxfile host="app.diagrams.net" modified="2022-01-07T05:17:28.935Z" agent="5.0 (Windows NT 10.0; Win64; x64) AppleWebKit/537.36 (KHTML, like Gecko) Chrome/96.0.4664.110 Safari/537.36" etag="xU3230CJ3MhsM4iYrCxt" version="16.2.2" type="github">
  <diagram id="HXQpI8AFAVGygzaY-uvE" name="Page-1">
    <mxGraphModel dx="1422" dy="762" grid="1" gridSize="10" guides="1" tooltips="1" connect="1" arrows="1" fold="1" page="1" pageScale="1" pageWidth="827" pageHeight="1169" math="0" shadow="0">
      <root>
        <mxCell id="0" />
        <mxCell id="1" parent="0" />
        <mxCell id="dEXukqFfbBN_6zC94aLe-1" value="" style="whiteSpace=wrap;html=1;aspect=fixed;" parent="1" vertex="1">
          <mxGeometry x="140" y="10" width="470" height="470" as="geometry" />
        </mxCell>
        <mxCell id="dEXukqFfbBN_6zC94aLe-2" value="图片或者PDF可视区" style="rounded=0;whiteSpace=wrap;html=1;" parent="1" vertex="1">
          <mxGeometry x="150" y="90" width="210" height="300" as="geometry" />
        </mxCell>
        <mxCell id="dEXukqFfbBN_6zC94aLe-3" value="表单录入区域" style="rounded=0;whiteSpace=wrap;html=1;" parent="1" vertex="1">
          <mxGeometry x="370" y="90" width="220" height="300" as="geometry" />
        </mxCell>
        <mxCell id="dEXukqFfbBN_6zC94aLe-4" value="头部区域" style="rounded=0;whiteSpace=wrap;html=1;" parent="1" vertex="1">
          <mxGeometry x="150" y="20" width="440" height="60" as="geometry" />
        </mxCell>
        <mxCell id="dEXukqFfbBN_6zC94aLe-5" value="其他" style="rounded=0;whiteSpace=wrap;html=1;" parent="1" vertex="1">
          <mxGeometry x="150" y="410" width="440" height="60" as="geometry" />
        </mxCell>
        <mxCell id="dEXukqFfbBN_6zC94aLe-6" value="图片使用多张图片滑动组件，PDF内嵌iframe使用浏览器默认读取功能" style="text;html=1;strokeColor=none;fillColor=none;align=center;verticalAlign=middle;whiteSpace=wrap;rounded=0;" parent="1" vertex="1">
          <mxGeometry x="184.5" y="110" width="141" height="60" as="geometry" />
        </mxCell>
        <mxCell id="dEXukqFfbBN_6zC94aLe-7" value="动态表单，根据CRF模板，动态生成，表单验证需动态验证" style="text;html=1;strokeColor=none;fillColor=none;align=center;verticalAlign=middle;whiteSpace=wrap;rounded=0;" parent="1" vertex="1">
          <mxGeometry x="420" y="120" width="110" height="60" as="geometry" />
        </mxCell>
        <mxCell id="dEXukqFfbBN_6zC94aLe-10" value="" style="rounded=0;whiteSpace=wrap;html=1;" parent="1" vertex="1">
          <mxGeometry x="13" y="590" width="801" height="530" as="geometry" />
        </mxCell>
        <mxCell id="dEXukqFfbBN_6zC94aLe-11" value="" style="rounded=0;whiteSpace=wrap;html=1;" parent="1" vertex="1">
          <mxGeometry x="33" y="830" width="610" height="230" as="geometry" />
        </mxCell>
        <mxCell id="dEXukqFfbBN_6zC94aLe-12" value="多通道频谱显示，弱化XY坐标，主要看波幅趋势" style="text;html=1;strokeColor=none;fillColor=none;align=center;verticalAlign=middle;whiteSpace=wrap;rounded=0;" parent="1" vertex="1">
          <mxGeometry x="53" y="920" width="281" height="20" as="geometry" />
        </mxCell>
        <mxCell id="dEXukqFfbBN_6zC94aLe-15" value="" style="rounded=0;whiteSpace=wrap;html=1;" parent="1" vertex="1">
          <mxGeometry x="33" y="640" width="610" height="180" as="geometry" />
        </mxCell>
        <mxCell id="dEXukqFfbBN_6zC94aLe-18" value="具体选中通道的频谱区间显示&amp;nbsp; 标准XY坐标" style="text;html=1;strokeColor=none;fillColor=none;align=center;verticalAlign=middle;whiteSpace=wrap;rounded=0;" parent="1" vertex="1">
          <mxGeometry x="53" y="705" width="231" height="25" as="geometry" />
        </mxCell>
        <mxCell id="dEXukqFfbBN_6zC94aLe-21" value="名称&amp;nbsp; &amp;nbsp; 开启那个图谱&amp;nbsp; &amp;nbsp;切换到标记模式" style="rounded=0;whiteSpace=wrap;html=1;align=left;" parent="1" vertex="1">
          <mxGeometry x="33" y="600" width="761" height="30" as="geometry" />
        </mxCell>
        <mxCell id="VoeNjybom4H6XY1b6rgb-1" value="状态栏" style="rounded=0;whiteSpace=wrap;html=1;" vertex="1" parent="1">
          <mxGeometry x="33" y="1070" width="761" height="33" as="geometry" />
        </mxCell>
        <mxCell id="VoeNjybom4H6XY1b6rgb-2" value="" style="rounded=0;whiteSpace=wrap;html=1;" vertex="1" parent="1">
          <mxGeometry x="654" y="640" width="136" height="420" as="geometry" />
        </mxCell>
        <mxCell id="VoeNjybom4H6XY1b6rgb-3" value="min-height:600px" style="text;html=1;strokeColor=none;fillColor=none;align=center;verticalAlign=middle;whiteSpace=wrap;rounded=0;" vertex="1" parent="1">
          <mxGeometry x="13" y="530" width="117" height="40" as="geometry" />
        </mxCell>
      </root>
    </mxGraphModel>
  </diagram>
</mxfile>
